<svg xmlns="http://www.w3.org/2000/svg" width="800" height="800" fill="none" viewBox="0 0 24 24"><path fill="#0F0F0F" fill-rule="evenodd" d="M12 0c-.765 0-1.37.126-1.843.36a5.464 5.464 0 0 0-.468.267L9.59.69a8.437 8.437 0 0 1-.27.165C9.096.984 9.01.998 9 1a2 2 0 0 0-2 2H6a3 3 0 0 0-3 3v14a3 3 0 0 0 3 3h12a3 3 0 0 0 3-3V6a3 3 0 0 0-3-3h-1a2 2 0 0 0-2-2c-.008-.001-.095-.015-.32-.146-.088-.05-.171-.103-.27-.165L14.31.627a5.474 5.474 0 0 0-.468-.268C13.371.126 12.765 0 12 0Zm4.732 5A2 2 0 0 1 15 6H9a2 2 0 0 1-1.732-1H6a1 1 0 0 0-1 1v14a1 1 0 0 0 1 1h12a1 1 0 0 0 1-1V6a1 1 0 0 0-1-1h-1.268Zm-5.69-2.848c.12-.059.4-.152.958-.152.557 0 .837.093.957.152.076.038.167.091.295.171l.074.047c.104.065.23.144.352.215.293.17.765.415 1.322.415v1H9V3c.557 0 1.029-.245 1.322-.415.123-.07.248-.15.352-.215l.074-.047c.128-.08.22-.133.295-.17Z" clip-rule="evenodd"/></svg>