<svg xmlns="http://www.w3.org/2000/svg" xml:space="preserve" width="917.295" height="920.968" viewBox="0 0 242.701 243.673"><g transform="translate(-92.186 -125.545)"><path d="M0 2a2 2 0 0 1 2-2h12a2 2 0 0 1 2 2v12a2 2 0 0 1-2 2H2a2 2 0 0 1-2-2Zm15 2h-4v3h4zm0 4h-4v3h4zm0 4h-4v3h3a1 1 0 0 0 1-1zm-5 3v-3H6v3zm-5 0v-3H1v2a1 1 0 0 0 1 1zm-4-4h4V8H1Zm0-4h4V4H1Zm5-3v3h4V4Zm4 4H6v3h4z" style="fill:#000" transform="matrix(13.22917 0 0 13.22917 92.186 125.545)"/><circle cx="284.887" cy="319.218" r="50" style="fill:#fff;stroke:#000;stroke-width:0;stroke-dasharray:none"/><path stroke="#000" stroke-linecap="round" stroke-linejoin="round" stroke-width="2" d="M4 12h16m-8-8v16" style="fill:none" transform="matrix(4.23723 0 0 4.23723 234.738 268.562)"/></g></svg>